<?xml version="1.0" encoding="UTF-8" standalone="no"?>
<!-- Generator: Adobe Illustrator 17.0.0, SVG Export Plug-In . SVG Version: 6.00 Build 0)  -->

<svg
   xmlns:dc="http://purl.org/dc/elements/1.1/"
   xmlns:cc="http://creativecommons.org/ns#"
   xmlns:rdf="http://www.w3.org/1999/02/22-rdf-syntax-ns#"
   xmlns:svg="http://www.w3.org/2000/svg"
   xmlns="http://www.w3.org/2000/svg"
   xmlns:sodipodi="http://sodipodi.sourceforge.net/DTD/sodipodi-0.dtd"
   xmlns:inkscape="http://www.inkscape.org/namespaces/inkscape"
   version="1.1"
   id="Layer_1"
   x="0px"
   y="0px"
   width="24px"
   height="24px"
   viewBox="0 0 24 24"
   enable-background="new 0 0 24 24"
   xml:space="preserve"
   inkscape:version="0.48.4 r9939"
   sodipodi:docname="apple_white.svg"><metadata
     id="metadata17"><rdf:RDF><cc:Work
         rdf:about=""><dc:format>image/svg+xml</dc:format><dc:type
           rdf:resource="http://purl.org/dc/dcmitype/StillImage" /><dc:title></dc:title></cc:Work></rdf:RDF></metadata><defs
     id="defs15" /><sodipodi:namedview
     pagecolor="#ffffff"
     bordercolor="#666666"
     borderopacity="1"
     objecttolerance="10"
     gridtolerance="10"
     guidetolerance="10"
     inkscape:pageopacity="0"
     inkscape:pageshadow="2"
     inkscape:window-width="640"
     inkscape:window-height="480"
     id="namedview13"
     showgrid="false"
     inkscape:zoom="9.8333333"
     inkscape:cx="12"
     inkscape:cy="12"
     inkscape:window-x="0"
     inkscape:window-y="24"
     inkscape:window-maximized="0"
     inkscape:current-layer="Layer_1" /><g
     id="g3"><g
       id="g5"><path
         fill="#FFFFFF"
         d="M21.895,17.489c-0.552,1.223-0.816,1.769-1.527,2.851c-0.991,1.51-2.389,3.39-4.121,3.406    c-1.54,0.014-1.935-1.002-4.023-0.99c-2.089,0.011-2.525,1.008-4.065,0.994c-1.732-0.016-3.056-1.713-4.048-3.224    c-2.773-4.221-3.063-9.176-1.353-11.81c1.216-1.872,3.133-2.968,4.936-2.968c1.836,0,2.99,1.007,4.508,1.007    c1.472,0,2.369-1.008,4.492-1.008c1.604,0,3.303,0.873,4.515,2.384C17.241,10.306,17.886,15.974,21.895,17.489z"
         id="path7"
         style="fill:#000000" /><g
         id="g9"><path
           fill="#FFFFFF"
           d="M15.084,4.061c0.771-0.99,1.357-2.388,1.144-3.816c-1.259,0.087-2.733,0.889-3.593,1.933     C11.854,3.126,11.209,4.533,11.46,5.9C12.836,5.942,14.258,5.121,15.084,4.061z"
           id="path11"
           style="fill:#000000" /></g></g></g></svg>