<?xml version="1.0" encoding="utf-8"?>
<!-- Generator: Adobe Illustrator 17.0.0, SVG Export Plug-In . SVG Version: 6.00 Build 0)  -->
<!DOCTYPE svg PUBLIC "-//W3C//DTD SVG 1.1//EN" "http://www.w3.org/Graphics/SVG/1.1/DTD/svg11.dtd">
<svg version="1.1" id="Layer_3" xmlns="http://www.w3.org/2000/svg" xmlns:xlink="http://www.w3.org/1999/xlink" x="0px" y="0px"
	 width="24px" height="24px" viewBox="0 0 24 24" enable-background="new 0 0 24 24" xml:space="preserve">
<g>
	<g>
		<g>
			<g>
				<g>
					<g>
						<path fill="#62BB46" stroke="#62BB46" stroke-width="0.125" d="M3.214,8.86c0.007-0.011,0.014-0.022,0.022-0.034
							c1.175-1.81,3.03-2.87,4.774-2.87c1.775,0,2.891,0.974,4.359,0.974c1.424,0,2.292-0.975,4.344-0.975
							c1.551,0,3.195,0.845,4.367,2.305c-0.324,0.178-0.616,0.379-0.877,0.601L3.214,8.86z"/>
						<g>
							<path fill="#62BB46" stroke="#62BB46" stroke-width="0.125" d="M15.156,4.324c0.745-0.957,1.312-2.309,1.106-3.691
								c-1.218,0.084-2.643,0.859-3.475,1.869c-0.755,0.917-1.379,2.278-1.136,3.6C12.981,6.145,14.357,5.35,15.156,4.324z"/>
						</g>
					</g>
				</g>
				<g>
					<g>
						<path fill="#FDB827" stroke="#FDB827" stroke-width="0.125" d="M3.214,8.86c-0.501,0.786-0.821,1.781-0.946,2.901h16.295
							c0.176-1.081,0.712-2.114,1.639-2.9L3.214,8.86z"/>
					</g>
				</g>
				<g>
					<g>
						<path fill="#F58220" stroke="#F58220" stroke-width="0.125" d="M2.353,14.664c-0.159-1.019-0.186-2.001-0.085-2.902h16.295
							c-0.16,0.977-0.026,1.994,0.378,2.903L2.353,14.664z"/>
					</g>
				</g>
				<g>
					<g>
						<path fill="#E03A3E" stroke="#E03A3E" stroke-width="0.125" d="M3.15,17.565c-0.385-0.975-0.648-1.954-0.796-2.901l16.588,0
							c0.513,1.158,1.464,2.142,2.802,2.647c-0.04,0.088-0.078,0.173-0.115,0.255L3.15,17.565z"/>
					</g>
				</g>
				<g>
					<g>
						<path fill="#963D97" stroke="#963D97" stroke-width="0.125" d="M21.628,17.566c-0.459,1.01-0.726,1.535-1.361,2.503
							c-0.086,0.13-0.174,0.263-0.266,0.397L4.69,20.467c-0.049-0.073-0.098-0.146-0.145-0.219
							c-0.573-0.872-1.036-1.776-1.395-2.684L21.628,17.566z"/>
					</g>
				</g>
				<g>
					<g>
						<path fill="#009CDC" stroke="#009CDC" stroke-width="0.125" d="M20.001,20.466c-0.937,1.373-2.194,2.883-3.72,2.897
							c-1.489,0.014-1.871-0.969-3.891-0.958c-2.02,0.011-2.441,0.975-3.93,0.961c-1.592-0.015-2.828-1.498-3.77-2.899
							L20.001,20.466z"/>
					</g>
				</g>
			</g>
		</g>
	</g>
</g>
</svg>
