<?xml version="1.0" encoding="utf-8"?>
<!-- Generator: Adobe Illustrator 17.0.0, SVG Export Plug-In . SVG Version: 6.00 Build 0)  -->
<!DOCTYPE svg PUBLIC "-//W3C//DTD SVG 1.1//EN" "http://www.w3.org/Graphics/SVG/1.1/DTD/svg11.dtd">
<svg version="1.1" id="Layer_1" xmlns="http://www.w3.org/2000/svg" xmlns:xlink="http://www.w3.org/1999/xlink" x="0px" y="0px"
	 width="24px" height="24px" viewBox="0 0 24 24" enable-background="new 0 0 24 24" xml:space="preserve">
<g>
	<g>
		<path fill="#FFFFFF" d="M21.895,17.489c-0.552,1.223-0.816,1.769-1.527,2.851c-0.991,1.51-2.389,3.39-4.121,3.406
			c-1.54,0.014-1.935-1.002-4.023-0.99c-2.089,0.011-2.525,1.008-4.065,0.994c-1.732-0.016-3.056-1.713-4.048-3.224
			c-2.773-4.221-3.063-9.176-1.353-11.81c1.216-1.872,3.133-2.968,4.936-2.968c1.836,0,2.99,1.007,4.508,1.007
			c1.472,0,2.369-1.008,4.492-1.008c1.604,0,3.303,0.873,4.515,2.384C17.241,10.306,17.886,15.974,21.895,17.489z"/>
		<g>
			<path fill="#FFFFFF" d="M15.084,4.061c0.771-0.99,1.357-2.388,1.144-3.816c-1.259,0.087-2.733,0.889-3.593,1.933
				C11.854,3.126,11.209,4.533,11.46,5.9C12.836,5.942,14.258,5.121,15.084,4.061z"/>
		</g>
	</g>
</g>
</svg>
