<?xml version="1.0" encoding="utf-8"?>
<!-- Generator: Adobe Illustrator 17.0.0, SVG Export Plug-In . SVG Version: 6.00 Build 0)  -->
<!DOCTYPE svg PUBLIC "-//W3C//DTD SVG 1.1//EN" "http://www.w3.org/Graphics/SVG/1.1/DTD/svg11.dtd">
<svg version="1.1" id="Layer_1" xmlns="http://www.w3.org/2000/svg" xmlns:xlink="http://www.w3.org/1999/xlink" x="0px" y="0px"
	 width="24px" height="24px" viewBox="0 0 24 24" enable-background="new 0 0 24 24" xml:space="preserve">
<g>
	<path fill="#FFFFFF" d="M11.986,1c-0.015,0.04,0.012,0.07,0.025,0.102c0.628,1.467,1.239,2.941,1.894,4.397
		c0.43,0.957,0.879,1.905,1.343,2.846c1.306,2.652,2.691,5.263,4.082,7.872c0.31,0.582,0.621,1.165,0.932,1.747
		c0.014,0.026,0.04,0.048,0.028,0.083l0.001-0.002c-0.275-0.143-0.546-0.294-0.829-0.422c-0.66-0.296-1.345-0.519-2.042-0.707
		c-0.013-0.004-0.028-0.002-0.069-0.004c0.149,0.081,0.274,0.149,0.399,0.216c0.972,0.524,1.862,1.167,2.713,1.866
		c0.177,0.145,0.355,0.287,0.534,0.429c0.058,0.046,0.103,0.1,0.138,0.166c0.585,1.081,1.171,2.161,1.756,3.242
		c0.011,0.02,0.03,0.038,0.024,0.077c-0.157-0.088-0.309-0.173-0.461-0.259c-1.221-0.692-2.456-1.357-3.734-1.941
		c-0.942-0.43-1.902-0.814-2.895-1.112c-0.449-0.135-0.902-0.254-1.362-0.343c-0.08-0.015-0.109-0.034-0.089-0.128
		c0.058-0.273,0.085-0.551,0.103-0.831c0.023-0.35,0.024-0.699-0.011-1.047c-0.059-0.598-0.191-1.18-0.436-1.733
		c-0.219-0.496-0.504-0.945-0.927-1.294c-0.361-0.298-0.769-0.466-1.245-0.43c-0.414,0.031-0.761,0.216-1.065,0.489
		c-0.391,0.352-0.655,0.788-0.856,1.268c-0.21,0.503-0.326,1.03-0.385,1.57c-0.073,0.664-0.033,1.321,0.105,1.974
		c0.025,0.118,0.024,0.119-0.093,0.142c-0.642,0.127-1.273,0.297-1.895,0.502c-1.406,0.463-2.747,1.078-4.06,1.754
		c-0.858,0.442-1.701,0.911-2.54,1.389C1.056,22.888,1.04,22.896,1,22.917c0.049-0.092,0.086-0.162,0.125-0.232
		c1.045-1.876,2.085-3.756,3.115-5.641c1.22-2.232,2.426-4.471,3.584-6.736c0.383-0.75,0.752-1.508,1.124-2.264
		C8.985,7.97,9.004,7.953,9.077,8.012c0.873,0.715,1.867,1.221,2.899,1.658c0.014,0.006,0.029,0.007,0.044,0.011
		c0.007,0.012,0.022,0.02,0.028,0.009c0.008-0.014-0.012-0.014-0.02-0.019c-0.24-0.182-0.482-0.362-0.72-0.546
		c-0.704-0.543-1.341-1.157-1.955-1.798C9.321,7.293,9.317,7.266,9.337,7.224c0.95-2.004,1.753-4.07,2.589-6.122
		C11.939,1.071,11.964,1.039,11.949,1C11.961,1,11.973,1,11.986,1z"/>
</g>
</svg>
