<?xml version="1.0" encoding="utf-8"?>
<!-- Generator: Adobe Illustrator 17.0.0, SVG Export Plug-In . SVG Version: 6.00 Build 0)  -->
<!DOCTYPE svg PUBLIC "-//W3C//DTD SVG 1.1//EN" "http://www.w3.org/Graphics/SVG/1.1/DTD/svg11.dtd">
<svg version="1.1" id="Layer_2" xmlns="http://www.w3.org/2000/svg" xmlns:xlink="http://www.w3.org/1999/xlink" x="0px" y="0px"
	 width="24px" height="24px" viewBox="0 0 24 24" enable-background="new 0 0 24 24" xml:space="preserve">
<g>
	<path fill="#FFFFFF" d="M22.748,1.539c1.166,1.166-2.067,6.29-2.613,6.836c-0.547,0.546-1.935,0.044-3.101-1.122
		c-1.166-1.166-1.668-2.554-1.122-3.101C16.459,3.606,21.582,0.373,22.748,1.539z"/>
	<path fill="#FFFFFF" d="M6.395,2.773c-1.781-1.01-4.314-2.134-5.12-1.328c-0.817,0.816,0.348,3.407,1.369,5.19
		C3.552,5.056,4.845,3.726,6.395,2.773z"/>
	<path fill="#FFFFFF" d="M20.97,7.974c0.164,0.556,0.134,1.016-0.131,1.281c-0.621,0.621-2.299-0.04-3.811-1.479
		c-0.106-0.095-0.21-0.193-0.313-0.296c-0.547-0.547-0.972-1.13-1.244-1.666c-0.53-0.95-0.662-1.789-0.262-2.19
		c0.218-0.218,0.567-0.278,0.993-0.201c0.278-0.176,0.605-0.371,0.965-0.572c-1.462-0.762-3.123-1.193-4.886-1.193
		c-5.846,0-10.586,4.739-10.586,10.586c0,5.846,4.74,10.586,10.586,10.586c5.847,0,10.586-4.74,10.586-10.586
		c0-1.888-0.496-3.659-1.361-5.194C21.318,7.392,21.136,7.705,20.97,7.974z"/>
</g>
</svg>
