<?xml version="1.0" encoding="utf-8"?>
<!-- Generator: Adobe Illustrator 17.0.0, SVG Export Plug-In . SVG Version: 6.00 Build 0)  -->
<!DOCTYPE svg PUBLIC "-//W3C//DTD SVG 1.1//EN" "http://www.w3.org/Graphics/SVG/1.1/DTD/svg11.dtd">
<svg version="1.1" id="Layer_2" xmlns="http://www.w3.org/2000/svg" xmlns:xlink="http://www.w3.org/1999/xlink" x="0px" y="0px"
	 width="24px" height="24px" viewBox="0 0 24 24" enable-background="new 0 0 24 24" xml:space="preserve">
<g>
	<path d="M4.446,13.602c-0.179,0.263-0.31,0.457-0.505,0.744c-0.223-0.854-0.41-1.57-0.621-2.375
		c-0.382,0.176-0.691,0.318-1.058,0.486c0.179-0.799,0.35-1.562,0.538-2.397c-0.419,0-0.757,0-1.164,0
		c0.475-0.71,0.9-1.347,1.362-2.038C2.601,7.862,2.301,7.742,1.921,7.589c0.686-0.449,1.333-0.872,2.065-1.351
		C3.668,5.951,3.418,5.725,3.132,5.466c0.806-0.178,1.566-0.346,2.4-0.53C5.338,4.574,5.197,4.311,5.008,3.958
		c0.823,0.078,1.574,0.15,2.414,0.23c-0.091-0.412-0.159-0.72-0.243-1.101C7.932,3.393,8.62,3.674,9.396,3.99
		c0.023-0.312,0.041-0.554,0.058-0.782c1.005,0.508,2.018,1.02,3.03,1.532c0.023-0.048,0.046-0.095,0.07-0.143
		c-0.695-1.259-1.39-2.519-2.086-3.778c0.038-0.018,0.075-0.035,0.113-0.053c1.254,1.422,2.509,2.844,3.763,4.266
		c0.046-0.037,0.093-0.073,0.139-0.11c-0.678-1.209-1.356-2.418-2.033-3.626c0.045-0.026,0.09-0.052,0.135-0.077
		c0.79,0.915,1.569,1.84,2.374,2.742c0.408,0.458,0.819,0.93,1.302,1.301c1.781,1.368,3.026,3.157,3.924,5.11
		c0,0.272-0.113,0.638,0.02,0.799c0.507,0.61,1.022,1.263,1.671,1.692c0.62,0.41,0.564,0.799,0.294,1.288
		c-0.483,0.876-1.276,1.363-2.284,1.678c0.485-1.211-0.085-2.098-0.84-2.873c-0.472-0.485-1.037-0.897-1.611-1.263
		c-0.989-0.63-1.799-1.406-2.529-2.335c-1.674-2.131-3.834-3.32-6.644-3.009C5.224,6.684,3.9,9.597,5.674,12.081
		c1.311,1.836,3.208,2.895,5.204,3.794c1.67,0.752,3.276,1.587,4.501,2.998c1.049,1.208,1.607,2.594,1.508,4.362
		c-0.092-0.217-0.15-0.304-0.167-0.399c-0.296-1.7-1.278-2.968-2.698-3.817c-1.512-0.904-3.119-1.658-4.717-2.409
		C7.612,15.813,5.939,15.003,4.446,13.602z M17.626,8.107c-0.11,0.105-0.219,0.21-0.329,0.315c0.429,0.415,0.857,0.829,1.286,1.244
		c0.058-0.057,0.116-0.113,0.174-0.17C18.379,9.033,18.003,8.57,17.626,8.107z"/>
</g>
</svg>
