<?xml version="1.0" encoding="utf-8"?>
<!-- Generator: Adobe Illustrator 17.0.0, SVG Export Plug-In . SVG Version: 6.00 Build 0)  -->
<!DOCTYPE svg PUBLIC "-//W3C//DTD SVG 1.1//EN" "http://www.w3.org/Graphics/SVG/1.1/DTD/svg11.dtd">
<svg version="1.1" id="Layer_1" xmlns="http://www.w3.org/2000/svg" xmlns:xlink="http://www.w3.org/1999/xlink" x="0px" y="0px"
	 width="24px" height="24px" viewBox="0 0 24 24" enable-background="new 0 0 24 24" xml:space="preserve">
<g>
	<path d="M20.927,19.216c-0.18-0.165-0.391-0.302-0.603-0.424c-0.392-0.226-0.674-0.538-0.8-0.973
		c-0.078-0.27-0.123-0.549-0.184-0.829c-0.144,0.189-0.185,0.364-0.139,0.821c0.057,0.574,0.29,1.026,0.889,1.214
		c0.16,0.05,0.314,0.13,0.458,0.217c0.412,0.25,0.427,0.541,0.019,0.788c-0.269,0.163-0.562,0.303-0.862,0.396
		c-0.852,0.263-1.605,0.685-2.273,1.275c-0.18,0.159-0.41,0.283-0.638,0.362c-0.737,0.256-1.349-0.102-1.481-0.862
		c-0.036-0.205-0.022-0.425,0.006-0.633c0.112-0.837,0.19-1.665-0.052-2.5c-0.128-0.444-0.149-0.91,0.068-1.347
		c0.149-0.301,0.37-0.329,0.568-0.061c0.12,0.163,0.21,0.351,0.302,0.533c0.148,0.295,0.384,0.47,0.706,0.514
		c0.534,0.073,0.995-0.076,1.351-0.495c0.119-0.14,0.221-0.294,0.341-0.433c0.082-0.094,0.185-0.169,0.273-0.258
		c0.1-0.101,0.231-0.192,0.282-0.314c0.074-0.178,0.11-0.38,0.125-0.574c0.069-0.915-0.169-1.78-0.47-2.629
		c-0.359-1.011-0.799-1.985-1.556-2.768c-1.352-1.4-1.886-3.101-1.868-5.003c0.004-0.473-0.034-0.932-0.185-1.377
		C14.9,2.965,14.45,2.175,13.575,1.723c-0.668-0.345-1.391-0.464-2.136-0.434c-0.41,0.016-0.809,0.097-1.178,0.305
		c-1.017,0.571-1.473,1.47-1.455,2.596c0.021,1.328,0.108,2.655,0.159,3.983c0.005,0.128-0.012,0.278-0.076,0.383
		c-0.329,0.542-0.653,1.091-1.026,1.603c-0.445,0.61-0.934,1.183-1.206,1.907c-0.346,0.922-0.633,1.87-1.151,2.724
		c-0.217,0.357-0.181,0.779-0.144,1.182c0.011,0.119,0.058,0.256,0.233,0.143c0.258-0.167,0.521-0.142,0.752,0.032
		c0.23,0.173,0.476,0.351,0.639,0.581c0.698,0.986,1.387,1.978,2.035,2.996c0.21,0.33,0.326,0.735,0.419,1.121
		c0.16,0.67-0.182,1.147-0.851,1.295c-0.353,0.078-0.688,0.014-1.024-0.072c-0.929-0.239-1.855-0.486-2.785-0.72
		c-0.376-0.095-0.763-0.15-1.137-0.251c-0.39-0.105-0.469-0.298-0.311-0.666c0.053-0.123,0.113-0.243,0.174-0.363
		c0.164-0.325,0.164-0.65,0.014-0.98c-0.085-0.186-0.181-0.37-0.239-0.564c-0.123-0.414,0.04-0.595,0.477-0.575
		c0.21,0.01,0.425,0.006,0.633-0.025c0.667-0.1,1.029-0.707,0.802-1.327c-0.085,0.611-0.449,0.967-1.068,1.041
		c-0.238,0.028-0.479,0.04-0.715,0.08c-0.28,0.047-0.419,0.206-0.394,0.485c0.025,0.272,0.084,0.543,0.15,0.809
		c0.092,0.37,0.087,0.724-0.08,1.074c-0.073,0.152-0.133,0.312-0.177,0.475c-0.099,0.365,0.02,0.622,0.364,0.781
		c0.146,0.067,0.302,0.121,0.46,0.155c0.614,0.13,1.239,0.217,1.844,0.38c0.734,0.199,1.448,0.469,2.178,0.685
		c0.238,0.071,0.499,0.097,0.748,0.092c0.397-0.008,0.687-0.274,0.991-0.49c0.401-0.285,0.837-0.481,1.33-0.493
		c1.053-0.026,2.107-0.03,3.16-0.047c0.406-0.006,0.728,0.123,0.929,0.503c0.15,0.285,0.401,0.465,0.713,0.518
		c0.297,0.05,0.606,0.091,0.903,0.063c0.25-0.024,0.549-0.087,0.724-0.246c0.845-0.77,1.781-1.383,2.817-1.863
		c0.32-0.148,0.612-0.379,0.875-0.619C21.197,19.748,21.179,19.447,20.927,19.216z M14.52,7.709c0.253,0.143,0.468,0.26,0.677,0.386
		c0.143,0.086,0.139,0.226,0.078,0.353c-0.066,0.138-0.2,0.152-0.298,0.055c-0.17-0.17-0.326-0.357-0.463-0.554
		C14.474,7.891,14.516,7.776,14.52,7.709z M13.045,3.063c0.031-0.112,0.083-0.221,0.097-0.335c0.026-0.212,0.118-0.271,0.289-0.153
		c0.132,0.091,0.252,0.198,0.423,0.335c-0.115,0.042-0.185,0.065-0.253,0.094c-0.138,0.058-0.274,0.123-0.414,0.178
		c-0.052,0.021-0.111,0.022-0.168,0.032C13.028,3.164,13.032,3.112,13.045,3.063z M7.567,11.479c0.1,0.256-0.097,0.592-0.33,0.61
		C7.344,11.891,7.453,11.689,7.567,11.479z M15.036,18.544c0.103,0.634,0.023,1.252-0.106,1.87c-0.065,0.309-0.124,0.62-0.185,0.929
		c-0.234-0.035-0.295-0.088-0.258-0.296c0.04-0.228,0.134-0.445,0.179-0.673c0.065-0.33,0.112-0.664,0.153-0.998
		c0.011-0.087-0.016-0.183-0.042-0.27c-0.043-0.14-0.136-0.153-0.242-0.065c-0.059,0.05-0.118,0.107-0.155,0.173
		c-0.35,0.609-0.915,0.903-1.566,1.064c-0.637,0.157-1.282,0.251-1.926,0.071c-0.223-0.062-0.418-0.219-0.63-0.323
		c-0.089-0.044-0.194-0.101-0.283-0.088c-0.18,0.025-0.209,0.139-0.093,0.283c0.212,0.265,0.369,0.552,0.361,0.904
		c-0.005,0.192-0.053,0.273-0.272,0.419c0.099-0.797-0.32-1.379-0.753-1.973c0.068-0.026,0.109-0.046,0.152-0.058
		c0.283-0.077,0.47-0.248,0.533-0.541c0.067-0.314-0.029-0.571-0.275-0.773c-0.624-0.51-1.254-1.015-1.873-1.531
		c-0.282-0.235-0.558-0.481-0.813-0.744c-0.317-0.326-0.384-0.761-0.44-1.188c-0.045-0.345-0.022-0.687,0.211-0.988
		c-0.008,0.075-0.014,0.15-0.024,0.224c-0.073,0.531-0.036,1.045,0.244,1.517c0.088,0.149,0.193,0.36,0.386,0.292
		c0.099-0.035,0.162-0.261,0.182-0.408c0.031-0.237,0.022-0.481,0.011-0.721c-0.018-0.416,0.029-0.824,0.184-1.206
		c0.217-0.535,0.456-1.061,0.711-1.579c0.097-0.197,0.263-0.36,0.414-0.56c-0.193-0.385-0.144-0.781,0.037-1.169
		C8.941,9.953,9.036,9.77,9.138,9.593C9.34,9.241,9.503,8.878,9.495,8.455C9.512,8.45,9.529,8.445,9.546,8.44
		c0.051,0.058,0.105,0.114,0.153,0.175c0.212,0.273,0.408,0.56,0.638,0.818c0.231,0.259,0.492,0.294,0.807,0.141
		c0.158-0.077,0.305-0.176,0.454-0.27c0.496-0.31,0.992-0.621,1.484-0.936c0.103-0.066,0.297-0.106,0.202-0.284
		c-0.086-0.161-0.242-0.068-0.356-0.012C12.518,8.273,12.12,8.506,11.7,8.687c-0.22,0.095-0.475,0.124-0.718,0.149
		c-0.385,0.041-0.654-0.164-0.901-0.502c0.122,0.014,0.205,0.022,0.288,0.033c0.495,0.064,0.969-0.004,1.43-0.2
		c0.474-0.201,0.956-0.382,1.433-0.574c0.051-0.021,0.123-0.049,0.136-0.09c0.025-0.076,0.014-0.165,0.019-0.248
		c-0.082,0.007-0.209-0.018-0.239,0.025c-0.176,0.253-0.441,0.35-0.71,0.433c-0.62,0.191-1.234,0.412-1.901,0.365
		c-0.269-0.019-0.487-0.105-0.661-0.321c-0.105-0.13-0.236-0.245-0.373-0.341C9.361,7.316,9.347,7.198,9.419,7.07
		c0.057-0.101,0.14-0.193,0.228-0.27c0.269-0.235,0.556-0.449,0.817-0.692c0.209-0.194-0.03-0.941-0.309-1.007
		C9.884,5.037,9.662,5.172,9.592,5.445C9.496,5.812,9.633,6.161,9.976,6.349c-0.082,0.07-0.145,0.158-0.224,0.177
		c-0.042,0.01-0.134-0.09-0.167-0.158C9.337,5.864,9.294,5.352,9.556,4.84c0.102-0.2,0.24-0.374,0.495-0.377
		c0.259-0.004,0.447,0.144,0.521,0.366c0.104,0.309,0.172,0.636,0.212,0.96c0.021,0.171,0.073,0.209,0.229,0.211
		c0.247,0.002,0.495,0.029,0.706,0.043c0-0.186-0.006-0.425,0.001-0.664c0.017-0.571,0.348-0.923,0.959-1.028
		c0.388-0.067,0.803,0.218,0.998,0.667c0.17,0.392,0.149,0.801,0.123,1.208c-0.013,0.2-0.304,0.331-0.455,0.205
		c-0.05-0.042-0.065-0.183-0.036-0.253c0.12-0.285,0.087-0.553-0.051-0.815c-0.131-0.248-0.347-0.341-0.62-0.308
		c-0.256,0.031-0.383,0.21-0.437,0.432c-0.042,0.176-0.048,0.364-0.044,0.546c0.003,0.145,0.067,0.252,0.233,0.31
		c0.371,0.13,0.731,0.293,1.096,0.441c0.257,0.104,0.337,0.241,0.285,0.509c-0.027,0.138-0.059,0.276-0.094,0.412
		c-0.105,0.403-0.035,0.778,0.216,1.103c0.469,0.607,0.721,1.303,0.896,2.038c0.024,0.102,0.087,0.206,0.159,0.284
		c0.347,0.369,0.491,0.835,0.64,1.299c0.24,0.749,0.29,1.523,0.3,2.303c0.001,0.05,0.001,0.099,0.004,0.149
		c0.023,0.372,0.132,0.532,0.388,0.573c0.31,0.049,0.607-0.127,0.717-0.435c0.149-0.416,0.157-0.847,0.103-1.277
		c-0.124-0.995-0.524-1.883-1.064-2.716c-0.034-0.053-0.067-0.107-0.1-0.161c-0.002-0.003,0.005-0.011,0.008-0.017
		c0.757,0.476,1.794,2.688,1.217,4.424c0.108,0.058,0.222,0.111,0.327,0.179c0.104,0.067,0.198,0.149,0.285,0.248
		c-0.358-0.156-0.724-0.219-1.107-0.191c-0.494,0.037-0.766,0.262-0.876,0.737c-0.607,0.014-0.839,0.377-0.865,1.1
		C14.91,17.742,14.972,18.148,15.036,18.544z M10.038,5.441c-0.001-0.001,0.022-0.068,0.029-0.067
		c0.042,0.007,0.111,0.013,0.12,0.038c0.056,0.149,0.099,0.304,0.146,0.457c-0.026,0.014-0.052,0.027-0.078,0.041
		c-0.024-0.018-0.065-0.032-0.07-0.054C10.152,5.711,10.225,5.532,10.038,5.441z M13.116,5.746c-0.107-0.16-0.199-0.298-0.29-0.435
		c0.002-0.014,0.004-0.029,0.006-0.043c0.082,0.046,0.18,0.076,0.242,0.14C13.158,5.496,13.224,5.608,13.116,5.746z"/>
</g>
</svg>
