<?xml version="1.0" encoding="UTF-8" standalone="no"?>
<!-- Created with Inkscape (http://www.inkscape.org/) -->

<svg
   xmlns:dc="http://purl.org/dc/elements/1.1/"
   xmlns:cc="http://creativecommons.org/ns#"
   xmlns:rdf="http://www.w3.org/1999/02/22-rdf-syntax-ns#"
   xmlns:svg="http://www.w3.org/2000/svg"
   xmlns="http://www.w3.org/2000/svg"
   xmlns:sodipodi="http://sodipodi.sourceforge.net/DTD/sodipodi-0.dtd"
   xmlns:inkscape="http://www.inkscape.org/namespaces/inkscape"
   id="svg2"
   version="1.1"
   inkscape:version="0.48.4 r9939"
   width="30"
   height="30"
   xml:space="preserve"
   sodipodi:docname="ubuntu_White_24x24.ai"><metadata
     id="metadata8"><rdf:RDF><cc:Work
         rdf:about=""><dc:format>image/svg+xml</dc:format><dc:type
           rdf:resource="http://purl.org/dc/dcmitype/StillImage" /><dc:title></dc:title></cc:Work></rdf:RDF></metadata><defs
     id="defs6"><clipPath
       clipPathUnits="userSpaceOnUse"
       id="clipPath16"><path
         d="M 0,24 24,24 24,0 0,0 0,24 z"
         id="path18" /></clipPath></defs><sodipodi:namedview
     pagecolor="#ffffff"
     bordercolor="#666666"
     borderopacity="1"
     objecttolerance="10"
     gridtolerance="10"
     guidetolerance="10"
     inkscape:pageopacity="0"
     inkscape:pageshadow="2"
     inkscape:window-width="640"
     inkscape:window-height="480"
     id="namedview4"
     showgrid="false"
     inkscape:zoom="7.8666667"
     inkscape:cx="15"
     inkscape:cy="15"
     inkscape:window-x="0"
     inkscape:window-y="24"
     inkscape:window-maximized="0"
     inkscape:current-layer="g10" /><g
     id="g10"
     inkscape:groupmode="layer"
     inkscape:label="ubuntu_White_24x24"
     transform="matrix(1.25,0,0,-1.25,0,30)"><g
       id="g12"><g
         id="g14"
         clip-path="url(#clipPath16)"><g
           id="g20"
           transform="translate(15.875,6.8159)"><path
             d="m 0,0 c 0.521,0.014 1.032,-0.251 1.311,-0.734 0.405,-0.702 0.165,-1.599 -0.537,-2.005 -0.703,-0.405 -1.601,-0.165 -2.007,0.537 -0.405,0.703 -0.165,1.601 0.537,2.007 C -0.476,-0.069 -0.237,-0.006 0,0 z M 0.571,4.63 2.665,4.599 C 2.562,2.981 1.855,1.528 0.769,0.461 0.211,0.672 -0.435,0.64 -0.992,0.318 c -0.559,-0.322 -0.909,-0.865 -1.005,-1.455 -0.542,-0.15 -1.113,-0.232 -1.704,-0.232 -1.015,0 -1.975,0.238 -2.827,0.66 l 1.02,1.828 c 0.55,-0.255 1.161,-0.399 1.807,-0.399 2.241,0 4.08,1.719 4.272,3.91 z M -11.18,6.478 c 0.811,0 1.467,-0.657 1.467,-1.468 0,-0.811 -0.656,-1.469 -1.467,-1.469 -0.812,0 -1.47,0.658 -1.47,1.469 0,0.811 0.658,1.468 1.47,1.468 m 3.94,3.84 1.074,-1.798 C -7.269,7.743 -7.991,6.461 -7.991,5.01 c 0,-1.452 0.722,-2.733 1.825,-3.509 L -7.24,-0.298 c -1.286,0.859 -2.241,2.172 -2.638,3.709 0.464,0.378 0.76,0.954 0.76,1.599 0,0.646 -0.296,1.221 -0.76,1.599 0.397,1.538 1.352,2.85 2.638,3.709 m 3.539,1.071 c 0.591,0 1.162,-0.082 1.704,-0.232 0.096,-0.59 0.447,-1.133 1.005,-1.455 C -0.435,9.38 0.21,9.349 0.768,9.56 1.854,8.492 2.562,7.039 2.665,5.421 L 0.571,5.39 C 0.379,7.581 -1.46,9.3 -3.701,9.3 -4.347,9.3 -4.958,9.156 -5.508,8.901 l -1.02,1.828 c 0.852,0.423 1.812,0.66 2.827,0.66 z m 3.708,1.567 c 0.26,0.005 0.525,-0.058 0.767,-0.197 0.702,-0.406 0.942,-1.303 0.537,-2.005 -0.406,-0.702 -1.304,-0.943 -2.007,-0.537 -0.702,0.405 -0.942,1.303 -0.537,2.005 0.266,0.461 0.744,0.723 1.24,0.734 z m -3.708,3.054 c -6.075,0 -11,-4.925 -11,-11 0,-6.075 4.925,-11 11,-11 6.075,0 11,4.925 11,11 0,6.075 -4.925,11 -11,11 z"
             style="fill:#ffffff;fill-opacity:1;fill-rule:nonzero;stroke:none"
             id="path22" /></g></g></g></g></svg>